<mxfile host="app.diagrams.net" modified="2024-05-27T11:46:22.626Z" agent="Mozilla/5.0 (Windows NT 10.0; Win64; x64; rv:126.0) Gecko/20100101 Firefox/126.0" etag="9WHLPT4cCXAO4jFkmHjA" version="24.4.8" type="github">
  <diagram name="第 1 页" id="tLnI2zQL5CIRjvMnKOiS">
    <mxGraphModel dx="1434" dy="698" grid="1" gridSize="10" guides="1" tooltips="1" connect="1" arrows="1" fold="1" page="1" pageScale="1" pageWidth="827" pageHeight="1169" math="0" shadow="0">
      <root>
        <mxCell id="0" />
        <mxCell id="1" parent="0" />
        <mxCell id="cWyvN9AYTG5NYkXwdExC-3" value="21" style="rounded=0;whiteSpace=wrap;html=1;" vertex="1" parent="1">
          <mxGeometry x="170" y="270" width="110" height="60" as="geometry" />
        </mxCell>
        <mxCell id="cWyvN9AYTG5NYkXwdExC-4" value="" style="rounded=0;whiteSpace=wrap;html=1;" vertex="1" parent="1">
          <mxGeometry x="280" y="270" width="40" height="60" as="geometry" />
        </mxCell>
        <mxCell id="cWyvN9AYTG5NYkXwdExC-39" style="edgeStyle=orthogonalEdgeStyle;rounded=0;orthogonalLoop=1;jettySize=auto;html=1;" edge="1" parent="1" source="cWyvN9AYTG5NYkXwdExC-5">
          <mxGeometry relative="1" as="geometry">
            <mxPoint x="390" y="300" as="targetPoint" />
          </mxGeometry>
        </mxCell>
        <mxCell id="cWyvN9AYTG5NYkXwdExC-5" value="" style="verticalLabelPosition=bottom;verticalAlign=top;html=1;shape=mxgraph.flowchart.on-page_reference;" vertex="1" parent="1">
          <mxGeometry x="285" y="285" width="30" height="30" as="geometry" />
        </mxCell>
        <mxCell id="cWyvN9AYTG5NYkXwdExC-40" value="21" style="rounded=0;whiteSpace=wrap;html=1;" vertex="1" parent="1">
          <mxGeometry x="390" y="270" width="110" height="60" as="geometry" />
        </mxCell>
        <mxCell id="cWyvN9AYTG5NYkXwdExC-45" style="edgeStyle=orthogonalEdgeStyle;rounded=0;orthogonalLoop=1;jettySize=auto;html=1;exitX=0.5;exitY=1;exitDx=0;exitDy=0;exitPerimeter=0;" edge="1" parent="1" source="cWyvN9AYTG5NYkXwdExC-43">
          <mxGeometry relative="1" as="geometry">
            <mxPoint x="520" y="390" as="targetPoint" />
          </mxGeometry>
        </mxCell>
        <mxCell id="cWyvN9AYTG5NYkXwdExC-41" value="" style="rounded=0;whiteSpace=wrap;html=1;" vertex="1" parent="1">
          <mxGeometry x="500" y="270" width="40" height="60" as="geometry" />
        </mxCell>
        <mxCell id="cWyvN9AYTG5NYkXwdExC-43" value="" style="verticalLabelPosition=bottom;verticalAlign=top;html=1;shape=mxgraph.flowchart.on-page_reference;" vertex="1" parent="1">
          <mxGeometry x="505" y="285" width="30" height="30" as="geometry" />
        </mxCell>
      </root>
    </mxGraphModel>
  </diagram>
</mxfile>
